<?xml version="1.0" encoding="UTF-8" standalone="no"?>
<svg
   xmlns:dc="http://purl.org/dc/elements/1.1/"
   xmlns:cc="http://creativecommons.org/ns#"
   xmlns:rdf="http://www.w3.org/1999/02/22-rdf-syntax-ns#"
   xmlns:svg="http://www.w3.org/2000/svg"
   xmlns="http://www.w3.org/2000/svg"
   id="svg4"
   version="1.1"
   class="svg-inline--fa fa-check-circle fa-w-16 fa-xs"
   viewBox="0 0 512 512"
   role="img"
   data-icon="check-circle"
   data-prefix="fas"
   focusable="false"
   aria-hidden="true">
  <metadata
     id="metadata10">
    <rdf:RDF>
      <cc:Work
         rdf:about="">
        <dc:format>image/svg+xml</dc:format>
        <dc:type
           rdf:resource="http://purl.org/dc/dcmitype/StillImage" />
        <dc:title></dc:title>
      </cc:Work>
    </rdf:RDF>
  </metadata>
  <defs
     id="defs8" />
  <path
     d="M 504,256 C 504,392.967 392.967,504 256,504 119.033,504 8.0000005,392.967 8.0000005,256 8.0000005,119.033 119.033,8.0000015 256,8.0000015 392.967,8.0000015 504,119.033 504,256 Z"
     class=""
     id="path1255"
     style="fill:#eeffbb;fill-opacity:1" />
  <path
     d="m 227.314,386.13397 184,-184 c 6.248,-6.248 6.248,-16.379 0,-22.627 l -22.627,-22.627 c -6.248,-6.249 -16.379,-6.249 -22.628,0 L 216,306.93797 l -70.059,-70.059 c -6.248,-6.248 -16.379,-6.248 -22.628,0 l -22.62699,22.627 c -6.248004,6.248 -6.248004,16.379 0,22.627 l 103.99999,104 c 6.249,6.249 16.379,6.249 22.628,10e-4 z"
     class=""
     id="path836"
     style="fill:#ccff66;fill-opacity:1" />
</svg>
