<?xml version="1.0" encoding="UTF-8" standalone="no"?>
<svg
   xmlns:dc="http://purl.org/dc/elements/1.1/"
   xmlns:cc="http://creativecommons.org/ns#"
   xmlns:rdf="http://www.w3.org/1999/02/22-rdf-syntax-ns#"
   xmlns:svg="http://www.w3.org/2000/svg"
   xmlns="http://www.w3.org/2000/svg"
   xmlns:sodipodi="http://sodipodi.sourceforge.net/DTD/sodipodi-0.dtd"
   xmlns:inkscape="http://www.inkscape.org/namespaces/inkscape"
   aria-hidden="true"
   focusable="false"
   data-prefix="fas"
   data-icon="check-circle"
   role="img"
   viewBox="0 0 512 512"
   class="svg-inline--fa fa-check-circle fa-w-16 fa-xs"
   version="1.1"
   id="svg4"
   sodipodi:docname="icon-fontawesome(check)1.svg"
   inkscape:version="0.92.3 (2405546, 2018-03-11)">
  <metadata
     id="metadata10">
    <rdf:RDF>
      <cc:Work
         rdf:about="">
        <dc:format>image/svg+xml</dc:format>
        <dc:type
           rdf:resource="http://purl.org/dc/dcmitype/StillImage" />
        <dc:title></dc:title>
      </cc:Work>
    </rdf:RDF>
  </metadata>
  <defs
     id="defs8" />
  <sodipodi:namedview
     pagecolor="#ffffff"
     bordercolor="#666666"
     borderopacity="1"
     objecttolerance="10"
     gridtolerance="10"
     guidetolerance="10"
     inkscape:pageopacity="0"
     inkscape:pageshadow="2"
     inkscape:window-width="2560"
     inkscape:window-height="1013"
     id="namedview6"
     showgrid="false"
     inkscape:zoom="0.40576172"
     inkscape:cx="149.21417"
     inkscape:cy="124.95058"
     inkscape:window-x="0"
     inkscape:window-y="35"
     inkscape:window-maximized="1"
     inkscape:current-layer="svg4" />
  <path
     style="fill:#ccff66"
     id="path1255"
     class="check1"
     d="M 504,256 C 504,392.967 392.967,504 256,504 119.033,504 8.0000005,392.967 8.0000005,256 8.0000005,119.033 119.033,8.0000015 256,8.0000015 392.967,8.0000015 504,119.033 504,256 Z"
     inkscape:connector-curvature="0"
     sodipodi:nodetypes="sssss" />
  <path
     style="fill:#ffffff"
     id="path836"
     class="check2"
     d="m 227.314,386.13397 184,-184 c 6.248,-6.248 6.248,-16.379 0,-22.627 l -22.627,-22.627 c -6.248,-6.249 -16.379,-6.249 -22.628,0 L 216,306.93797 l -70.059,-70.059 c -6.248,-6.248 -16.379,-6.248 -22.628,0 l -22.62699,22.627 c -6.248004,6.248 -6.248004,16.379 0,22.627 l 103.99999,104 c 6.249,6.249 16.379,6.249 22.628,10e-4 z"
     inkscape:connector-curvature="0"
     sodipodi:nodetypes="csscccscsssc" />
</svg>
