<svg class="svg-inline--fa fa-check-circle fa-w-16 fa-xs" aria-hidden="true" data-icon="check-circle" data-prefix="fas" focusable="false" inkscape:version="0.92.3 (2405546, 2018-03-11)" role="img" sodipodi:docname="check-otimizado.svg" version="1.1" viewBox="0 0 512 512" xmlns="http://www.w3.org/2000/svg" xmlns:inkscape="http://www.inkscape.org/namespaces/inkscape" xmlns:sodipodi="http://sodipodi.sourceforge.net/DTD/sodipodi-0.dtd">
	<sodipodi:namedview bordercolor="#666666" borderopacity="1" gridtolerance="10" guidetolerance="10" inkscape:current-layer="svg4" inkscape:cx="-470.60773" inkscape:cy="105.23458" inkscape:pageopacity="0" inkscape:pageshadow="2" inkscape:window-height="1013" inkscape:window-maximized="1" inkscape:window-width="2560" inkscape:window-x="0" inkscape:window-y="35" inkscape:zoom="0.40576172" objecttolerance="10" pagecolor="#ffffff" showgrid="false"/>
	<path class="" d="m504 256c0 136.97-111.03 248-248 248s-248-111.03-248-248 111.03-248 248-248 248 111.03 248 248z" fill="#efb" inkscape:connector-curvature="0" sodipodi:nodetypes="sssss"/>
	<path class="" d="m227.31 386.13 184-184c6.248-6.248 6.248-16.379 0-22.627l-22.627-22.627c-6.248-6.249-16.379-6.249-22.628 0l-150.06 150.06-70.059-70.059c-6.248-6.248-16.379-6.248-22.628 0l-22.627 22.627c-6.248 6.248-6.248 16.379 0 22.627l104 104c6.249 6.249 16.379 6.249 22.628 1e-3z" fill="#cf6" inkscape:connector-curvature="0" sodipodi:nodetypes="csscccscsssc"/>
</svg>
