<?xml version="1.0" encoding="UTF-8" standalone="no"?>
<svg
   xmlns:dc="http://purl.org/dc/elements/1.1/"
   xmlns:cc="http://creativecommons.org/ns#"
   xmlns:rdf="http://www.w3.org/1999/02/22-rdf-syntax-ns#"
   xmlns:svg="http://www.w3.org/2000/svg"
   xmlns="http://www.w3.org/2000/svg"
   xmlns:sodipodi="http://sodipodi.sourceforge.net/DTD/sodipodi-0.dtd"
   xmlns:inkscape="http://www.inkscape.org/namespaces/inkscape"
   aria-hidden="true"
   focusable="false"
   data-prefix="fad"
   data-icon="times-circle"
   role="img"
   viewBox="0 0 512 512"
   class="svg-inline--fa fa-times-circle fa-w-16 fa-3x"
   version="1.1"
   id="svg8"
   sodipodi:docname="icon-fontawesome.svg"
   inkscape:version="0.92.3 (2405546, 2018-03-11)">
  <metadata
     id="metadata14">
    <rdf:RDF>
      <cc:Work
         rdf:about="">
        <dc:format>image/svg+xml</dc:format>
        <dc:type
           rdf:resource="http://purl.org/dc/dcmitype/StillImage" />
        <dc:title></dc:title>
      </cc:Work>
    </rdf:RDF>
  </metadata>
  <defs
     id="defs12" />
  <sodipodi:namedview
     pagecolor="#ffffff"
     bordercolor="#666666"
     borderopacity="1"
     objecttolerance="10"
     gridtolerance="10"
     guidetolerance="10"
     inkscape:pageopacity="0"
     inkscape:pageshadow="2"
     inkscape:window-width="2560"
     inkscape:window-height="1013"
     id="namedview10"
     showgrid="false"
     inkscape:zoom="0.4609375"
     inkscape:cx="-517.42373"
     inkscape:cy="221.28814"
     inkscape:window-x="0"
     inkscape:window-y="35"
     inkscape:window-maximized="1"
     inkscape:current-layer="g6" />
  <g
     class="fa-group"
     id="g6">
    <path
       d="M 256,504 C 119,504 8,393 8,256 8,119 119,8 256,8 393,8 504,119 504,256 504,393 393,504 256,504 Z M 377.6,190.9 a 12,12 0 0 0 0,-17 L 338,134.4 a 12,12 0 0 0 -17,0 L 256,200 190.9,134.4 a 12,12 0 0 0 -17,0 L 134.4,174 a 12,12 0 0 0 0,17 l 65.6,65 -65.6,65.1 a 12,12 0 0 0 0,17 l 39.6,39.6 a 12,12 0 0 0 17,0 l 65,-65.7 65.1,65.6 a 12,12 0 0 0 17,0 L 377.7,338 a 12,12 0 0 0 0,-17 L 312,256 Z"
       class="fa-secondary"
       id="path2"
       style="fill:#ff9d9d;fill-opacity:1"
       inkscape:connector-curvature="0" />
    <path
       d="M377.6 321.1a12 12 0 0 1 0 17L338 377.6a12 12 0 0 1-17 0L256 312l-65.1 65.6a12 12 0 0 1-17 0L134.4 338a12 12 0 0 1 0-17l65.6-65-65.6-65.1a12 12 0 0 1 0-17l39.6-39.6a12 12 0 0 1 17 0l65 65.7 65.1-65.6a12 12 0 0 1 17 0l39.6 39.6a12 12 0 0 1 0 17L312 256z"
       class="fa-primary"
       id="path4"
       fill="currentColor"
       style="fill:#cc3c3c;fill-opacity:1" />
  </g>
</svg>
